<svg width="130" height="122" viewBox="0 0 130 122" fill="none" xmlns="http://www.w3.org/2000/svg">
<g clip-path="url(#clip0)">
<path fill-rule="evenodd" clip-rule="evenodd" d="M82.8831 10.8162L78.4483 13.9077C79.4342 15.0809 79.9325 15.7503 80.6398 16.7958L86.5803 25.4187L90.9312 22.374L86.3571 15.7107C86.2606 15.5757 84.3406 13.384 86.5 11.8761C87.8467 10.9296 88.9701 11.9535 89.7864 13.0637L94.498 19.8926L98.8364 16.8425L93.4996 9.06355C91.735 6.49395 88.8004 6.15385 86.316 7.90111C84.8443 8.9232 84.0137 10.1846 83.8137 12.0308L82.8831 10.8162ZM75.5674 12.9755L73.4473 9.8715L69.0339 12.9576L71.1682 16.0616L75.5674 12.9755ZM84.8979 26.5991L76.9087 14.9855L72.5632 18.0392L80.5398 29.6312L84.8979 26.5991ZM55.1167 30.2304L50.8158 33.2553C51.7803 34.4249 52.2661 35.0979 53.0002 36.1308L58.9282 44.7735L63.2738 41.7289L58.705 35.0475C58.596 34.9126 56.692 32.7262 58.8514 31.2129C60.1981 30.2754 61.3287 31.3083 62.1503 32.4077L66.8441 39.2366L71.195 36.174L66.6173 29.5232C66.5244 29.3883 64.6151 27.184 66.7763 25.6814C68.1301 24.7367 69.2411 25.7714 70.0698 26.869L74.7601 33.6835L79.1109 30.6461L73.7652 22.8797C72.0095 20.3101 69.0535 19.9646 66.5852 21.7046C64.8919 22.9607 63.8524 24.8465 64.0203 26.7863C62.5665 25.712 60.475 26.0665 59.0729 27.0472C57.3582 28.2582 56.2562 29.9137 56.5492 32.0784L56.5152 32.1054L55.1167 30.2304ZM33.3497 45.4699L29.0399 48.4876C30.0044 49.6536 30.4956 50.3356 31.2118 51.3667L37.1505 60.004L41.505 56.9611L36.9326 50.305C36.8237 50.1521 34.9161 47.9621 37.0755 46.4578C38.4222 45.5077 39.5439 46.5352 40.369 47.6454L45.0754 54.4617L49.4191 51.4153L44.8342 44.7627C44.7503 44.6188 42.8338 42.418 44.9771 40.9317C46.3399 39.9708 47.4669 41.0019 48.2885 42.1013L52.9823 48.9356L57.3243 45.8802L52 38.1066C50.23 35.5442 47.2812 35.2095 44.7985 36.9387C43.1017 38.1875 42.0605 40.0914 42.2462 42.0186C40.7959 40.9407 38.6955 41.306 37.3005 42.2813C35.5698 43.4941 34.4803 45.1532 34.7732 47.3035L34.7304 47.3359L33.3497 45.4699ZM31.6547 63.8404L36.0967 60.7436C35.1072 59.5721 34.6125 58.9045 33.9034 57.8519L27.9647 49.2307L23.6084 52.2844L28.1826 58.9495C28.2862 59.0773 30.208 61.2618 28.0308 62.7788C26.7019 63.7235 25.5696 62.687 24.748 61.5839L20.0488 54.764L15.6818 57.8087L21.0508 65.5823C22.8065 68.1447 25.7696 68.4848 28.2397 66.7555C29.7115 65.7334 30.5366 64.4612 30.726 62.6132L31.6547 63.8404ZM97.2504 0.5C96.8485 0.550384 96.4413 0.735727 96.2395 0.872485C93.9247 2.46859 92.2958 4.88884 94.2694 7.76435C97.17 11.9625 103.139 5.97571 104.555 8.03427C105.07 8.77384 104.661 9.52421 103.821 10.1216C103.42 10.4113 102.903 10.4455 102.425 10.3106C101.971 10.1828 101.582 9.8715 101.407 9.48642L97.2825 12.3673C99.6973 15.9266 102.835 14.5717 105.666 12.6085C108.294 10.7622 110.621 7.97309 108.513 4.88884C107.197 2.99403 105.672 2.79609 104.004 3.32693C100.68 4.3778 98.9472 5.65001 98.3578 4.78448C97.888 4.12948 98.0256 3.48888 98.6668 3.03182C99.2669 2.61435 99.7438 2.52257 100.151 2.61435C100.519 2.70612 100.68 2.82668 100.951 3.21356L105.268 0.507198H120.148V44.7771H68.2409C60.9804 44.7771 50.2461 48.1295 50.2461 60.9271C50.2461 73.1184 61.1698 76.4671 68.2409 76.4671H120.146V121.327H63.0273C31.619 121.329 0 100.078 0 60.9307C0 21.5571 32.7782 0.508997 63.0273 0.508997H96.7842L97.2504 0.5ZM11.556 53.5872L5.84585 57.5892C1.75393 60.4467 -0.282201 66.1005 3.39356 71.4593C7.06217 76.7766 12.8705 76.9746 17.15 74.0019L22.8458 70.0071L19.6183 65.3142L14.2351 69.0822C12.165 70.538 9.70736 69.7696 8.45174 67.9198C7.17291 66.0699 7.31579 63.4679 9.37872 62.032L14.7673 58.2621L11.556 53.5872ZM125.813 117.851V116.471H126.714C127.19 116.471 127.65 116.598 127.65 117.145C127.65 117.833 127.058 117.851 126.464 117.851H125.813ZM125.813 118.263H126.639L127.744 120.048H128.326L127.148 118.263C127.689 118.166 128.128 117.856 128.128 117.145C128.128 116.445 127.746 116.053 126.855 116.053H125.349V120.05H125.815V118.263H125.813ZM126.581 115.087C128.228 115.087 129.461 116.386 129.461 118.038C129.461 119.697 128.228 120.994 126.581 120.994C124.926 120.994 123.697 119.697 123.697 118.038C123.697 116.388 124.926 115.087 126.581 115.087ZM126.581 114.603C124.636 114.603 123.152 116.123 123.152 118.038C123.152 119.985 124.636 121.502 126.581 121.502C128.501 121.502 129.998 119.987 129.998 118.038C130 116.123 128.501 114.603 126.581 114.603Z" fill="#211915"/>
</g>
<defs>
<clipPath id="clip0">
<rect width="130" height="121" fill="white" transform="translate(0 0.5)"/>
</clipPath>
</defs>
</svg>
