<svg width="320" height="52" viewBox="0 0 320 52" fill="none" xmlns="http://www.w3.org/2000/svg">
<path fill-rule="evenodd" clip-rule="evenodd" d="M0.5 51.3377H318.539V0H0.5V51.3377Z" fill="#FEFEFE"/>
<path fill-rule="evenodd" clip-rule="evenodd" d="M176.822 49.1862H316.452V2.13632H176.822V49.1862Z" fill="#D0D2D3"/>
<path fill-rule="evenodd" clip-rule="evenodd" d="M2.57709 49.1862H177.365V2.13632H2.57709V49.1862Z" fill="#213F99"/>
<path fill-rule="evenodd" clip-rule="evenodd" d="M127.856 9.92688H120.002V16.4493H106.678V24.1193H111.607V36.9481H120.002V18.0165H127.856V9.92688Z" fill="#FEFEFE"/>
<path fill-rule="evenodd" clip-rule="evenodd" d="M139.001 24.8382C136.294 23.4003 133.703 23.7368 133.911 22.3776C134.166 20.8162 137.422 21.9999 139.926 23.4393L142.18 17.9728C139.13 16.1954 136.958 15.7714 134.875 15.6905C132.239 15.5577 129.521 16.576 128.065 17.85C125.729 19.9271 125.144 23.2724 126.555 25.9389C128.316 29.2445 132.155 29.2445 133.495 29.8772C134.332 30.2939 134.209 31.3606 133.326 31.6148C131.117 32.337 126.729 29.4973 126.729 29.4973L124.388 34.9623C127.397 36.7014 129.854 37.7111 133.365 37.7111C143.595 37.7111 144.225 27.4165 139.001 24.8382Z" fill="#FEFEFE"/>
<path fill-rule="evenodd" clip-rule="evenodd" d="M39.2265 16.4494H29.6615L25.1919 26.4464V16.4494H16.7591V36.9482H25.1919V26.528L29.8737 36.9482H39.5583L34.4294 26.4941L39.2265 16.4494Z" fill="#FEFEFE"/>
<path fill-rule="evenodd" clip-rule="evenodd" d="M154.921 16.4494V29.3223C154.881 29.921 154.419 30.3905 153.792 30.3905C153.21 30.3905 152.705 29.921 152.705 29.3223H152.663V16.4494H144.31V29.284C144.31 34.8755 148.071 37.7622 153.751 37.7622C159.473 37.7622 163.272 35.0011 163.272 29.284V16.4494H154.921Z" fill="#FEFEFE"/>
<path fill-rule="evenodd" clip-rule="evenodd" d="M49.2119 15.6468C43.1936 15.6468 38.3552 20.602 38.3552 26.699C38.3552 32.7981 43.1936 37.762 49.2119 37.762V29.8377C47.5379 29.8377 46.16 28.441 46.16 26.699C46.16 24.9656 47.5379 23.571 49.2119 23.571V15.6468ZM49.2119 15.6468V23.571C50.923 23.571 52.3001 24.9656 52.3001 26.699C52.3001 28.441 50.923 29.8377 49.2119 29.8377V37.762C55.2216 37.762 60.1127 32.7981 60.1127 26.699C60.1127 20.602 55.2216 15.6468 49.2119 15.6468Z" fill="#FEFEFE"/>
<path fill-rule="evenodd" clip-rule="evenodd" d="M93.6423 16.4494L87.053 35.6843L84.1677 16.4494H76.5217L73.979 24.6668L71.3849 16.4494H63.7866L60.6949 36.9482H68.2989L69.3848 29.1555L71.511 36.9482H76.4419L78.5304 29.1555L79.6533 36.9482H95.3584L97.8242 27.2979L100.329 36.9482H109.103L102.045 16.4494H93.6423Z" fill="#FEFEFE"/>
<path fill-rule="evenodd" clip-rule="evenodd" d="M211.182 14.4125H204.143L193.499 36.9321H199.691L205.885 23.7436V36.9321H212.026L219.181 23.1947V36.9321H224.062V14.4125H223.758H217.621L211.182 26.795V14.4125ZM292.882 36.9321H298.302V14.4125H292.882V36.9321ZM271.648 14.3482H277.122V28.1376C277.122 29.85 277.426 31.0677 278.147 31.8657C278.805 32.653 279.172 33.0242 280.67 33.0242C282.176 33.0242 282.599 32.653 283.261 31.8657C283.978 31.132 284.341 29.85 284.341 28.1376V14.3482H289.64V28.6309C289.64 31.3111 288.854 33.7529 287.348 35.1576C285.784 36.6259 283.562 37.3503 280.67 37.3503C277.79 37.3503 275.559 36.6259 273.994 35.2147C272.431 33.7529 271.648 31.3681 271.648 28.6309V14.3482ZM253.6 25.5759C253.716 26.3689 254.082 26.9185 254.684 27.2283C255.224 27.6552 255.881 27.895 256.545 27.895C259.194 27.895 261.66 27.9556 264.366 27.9556C265.212 28.7472 265.035 31.6158 263.827 31.6751H253.539V36.9321H266.293C267.981 36.4995 268.88 35.2761 269.12 33.3838V25.2105V25.0913V25.0256C269.061 23.5645 268.279 22.7636 266.78 22.5837H258.837C257.448 22.7137 257.391 19.7143 258.837 19.6602H269.12V14.4125H256.37C254.737 14.9007 253.778 16.0599 253.539 17.9449V24.9635V25.4524C253.539 25.5109 253.6 25.5109 253.6 25.5759ZM234.172 14.4125V19.6602H240.362V36.9321H245.779V19.6602H251.915V14.4125H234.172ZM226.467 36.9321H231.877V14.4125H226.467V36.9321Z" fill="#020303"/>
</svg>
